<?xml version="1.0" encoding="UTF-8"?>
<svg width="20px" height="20px" viewBox="0 0 20 20" version="1.1" xmlns="http://www.w3.org/2000/svg" xmlns:xlink="http://www.w3.org/1999/xlink">
    <!-- Generator: Sketch 55.2 (78181) - https://sketchapp.com -->
    <title>icon-search-gray-20px</title>
    <desc>Created with Sketch.</desc>
    <g id="icon-search-gray-20px" stroke="none" stroke-width="1" fill="none" fill-rule="evenodd">
        <path d="M6.999,0 C3.132,0 0,3.135 0,7.001 C0,10.867 3.134,13.999 7,14 L7.002,14 C10.869,14 14.002,10.866 14,7.001 C14.001,3.133 10.863,0 7.001,0 L6.999,0 Z M7.001,3 C8.069,3 9.073,3.416 9.828,4.172 C10.584,4.927 11,5.932 11,7.002 C11.001,8.07 10.585,9.074 9.83,9.829 C9.075,10.584 8.071,11 7.001,11 C4.795,10.999 3,9.205 3,7.001 C3,4.795 4.794,3 6.999,3 L7.001,3 L7.001,3 Z" id="Fill-1" fill="#989898"></path>
        <path d="M11.2316,11.2186 L18.5156,18.4986" id="Stroke-3" stroke="#989898" stroke-width="3"></path>
        <path d="M19.5610003,17.4395 C20.1490003,18.0255 20.1490003,18.9745 19.5630003,19.5605 C18.9730003,20.1485 18.0260003,20.1475 17.4410003,19.5615 C16.8540003,18.9755 16.8520003,18.0275 17.4410003,17.4395 C18.0260003,16.8535 18.9770003,16.8535 19.5610003,17.4395" id="Fill-5" fill="#989898"></path>
    </g>
</svg>